<svg xmlns="http://www.w3.org/2000/svg" viewBox="0 0 5120 1440"><title>bgv3 - export</title><g id="ecd0bb5f-f960-47b3-ba4b-6a437c497601" data-name="Layer 1"><rect x="2282" y="289" width="566" height="152" style="fill:#e0c6ce"/></g><g id="f92fe08b-0a68-44bd-9727-cb1ae87f7ed4" data-name="Layer 3"><polygon points="5120 0 3329.37 0 2752 230 5120 1173.31 5120 0" style="fill:#c2d4ec"/><polygon points="1838.24 0 0 0 0 1170.28 2388 219 1838.24 0" style="fill:#c2d4ec"/><polygon points="2160.67 0 2554 170 2947.33 0 2160.67 0" style="fill:#c6a5b1"/><polygon points="0 1154 0 1354 3385 0 2885 0 0 1154" style="fill:#eaeaea"/><polygon points="5120 1154 2235 0 1735 0 5120 1354 5120 1154" style="fill:#eaeaea"/></g><g id="30c51627-d00f-4dc7-b211-eb02d7af7d16" data-name="Layer 2"><polyline points="2310 230 2560 130 2810 230 2560 330" style="fill:#fff"/></g></svg>